<svg width="29" height="30" viewBox="0 0 29 30" fill="none" xmlns="http://www.w3.org/2000/svg">
<rect x="4.83328" y="5.33337" width="8.45833" height="8.45833" rx="1.5" fill="white"/>
<path opacity="0.3" fill-rule="evenodd" clip-rule="evenodd" d="M15.7083 6.83337C15.7083 6.00495 16.3799 5.33337 17.2083 5.33337H22.6666C23.495 5.33337 24.1666 6.00495 24.1666 6.83337V12.2917C24.1666 13.1201 23.495 13.7917 22.6666 13.7917H17.2083C16.3799 13.7917 15.7083 13.1201 15.7083 12.2917V6.83337ZM4.83328 17.7084C4.83328 16.8799 5.50486 16.2084 6.33328 16.2084H11.7916C12.62 16.2084 13.2916 16.8799 13.2916 17.7084V23.1667C13.2916 23.9951 12.62 24.6667 11.7916 24.6667H6.33328C5.50486 24.6667 4.83328 23.9951 4.83328 23.1667V17.7084ZM17.2083 16.2084C16.3799 16.2084 15.7083 16.8799 15.7083 17.7084V23.1667C15.7083 23.9951 16.3799 24.6667 17.2083 24.6667H22.6666C23.495 24.6667 24.1666 23.9951 24.1666 23.1667V17.7084C24.1666 16.8799 23.495 16.2084 22.6666 16.2084H17.2083Z" fill="white"/>
</svg>
